<svg id="svg" version="1.1" xmlns="http://www.w3.org/2000/svg" xmlns:xlink="http://www.w3.org/1999/xlink" width="400" height="317.0984455958549" viewBox="0, 0, 400,317.0984455958549"><g id="svgg"><path id="path0" d="M257.845 32.133 C 257.721 32.309,257.218 52.030,256.926 68.200 C 256.745 78.232,256.537 88.438,256.465 90.880 C 256.392 93.323,256.243 102.960,256.134 112.295 L 255.935 129.270 256.648 130.176 L 257.361 131.082 294.660 130.864 C 338.382 130.609,364.060 130.272,364.948 129.941 C 365.643 129.683,365.601 130.654,365.827 109.547 L 365.902 102.520 364.894 101.354 L 363.886 100.188 349.191 100.133 L 334.496 100.079 332.276 98.986 C 330.195 97.961,329.846 97.890,326.716 97.856 C 322.701 97.812,321.591 97.333,320.874 95.332 C 320.478 94.228,320.359 70.614,320.667 54.252 C 320.692 52.918,319.507 51.094,317.693 49.676 C 316.314 48.597,316.325 48.619,316.212 46.695 C 316.170 45.982,316.038 45.459,315.920 45.532 C 315.802 45.605,314.894 45.454,313.903 45.196 C 312.913 44.938,310.745 44.726,309.086 44.726 C 307.155 44.726,306.139 44.612,306.265 44.409 C 306.373 44.235,307.023 44.092,307.711 44.092 C 309.105 44.092,309.433 43.415,308.327 42.823 C 307.426 42.341,307.541 41.910,308.565 41.936 C 309.709 41.965,313.069 41.203,313.276 40.867 C 313.489 40.523,315.623 42.229,315.623 42.744 C 315.623 42.962,315.745 43.140,315.896 43.140 C 316.243 43.140,316.524 38.221,316.327 35.585 L 316.178 33.581 314.869 33.632 C 314.149 33.660,313.489 33.658,313.402 33.628 C 312.522 33.321,306.348 33.238,303.727 33.498 C 301.320 33.736,266.456 33.812,266.455 33.580 C 266.455 33.214,264.097 33.082,263.179 33.396 C 262.546 33.613,262.033 33.586,261.434 33.304 C 260.529 32.877,257.921 32.026,257.845 32.133 M296.856 42.362 C 297.308 43.354,297.338 44.726,296.907 44.726 C 296.733 44.726,296.590 44.512,296.590 44.251 C 296.590 43.834,294.743 43.775,281.866 43.775 C 266.205 43.775,266.138 43.770,266.138 42.683 C 266.138 41.540,265.943 41.554,281.525 41.554 L 296.488 41.554 296.856 42.362 M298.493 42.030 C 298.493 42.292,298.619 42.506,298.772 42.506 C 298.925 42.506,299.228 42.292,299.445 42.030 C 299.662 41.768,300.001 41.559,300.197 41.564 C 300.394 41.570,300.305 41.764,300.000 41.996 C 299.301 42.526,299.290 43.395,299.972 44.148 C 300.822 45.088,300.198 45.192,299.272 44.265 C 298.807 43.800,298.344 43.502,298.243 43.602 C 298.142 43.703,298.229 43.954,298.435 44.161 C 299.079 44.805,298.845 45.173,298.176 44.568 C 297.543 43.995,297.369 43.007,297.734 42.056 C 297.978 41.420,298.493 41.402,298.493 42.030 M304.024 42.468 C 304.733 42.796,305.599 43.174,305.948 43.309 C 306.486 43.518,306.413 43.587,305.472 43.765 C 304.861 43.880,304.050 44.144,303.669 44.350 C 301.824 45.351,299.294 44.290,300.070 42.841 C 300.451 42.129,300.737 42.193,301.907 43.246 L 302.625 43.893 302.423 42.882 C 302.187 41.703,302.304 41.673,304.024 42.468 M192.726 132.389 C 190.784 132.847,190.513 133.796,190.751 139.299 C 190.976 144.489,191.179 145.312,192.438 146.137 C 193.667 146.942,250.124 147.033,251.676 146.233 C 253.636 145.223,253.915 144.422,254.030 139.470 C 254.148 134.402,253.937 133.496,252.461 132.733 C 251.325 132.145,195.127 131.822,192.726 132.389 " stroke="none" fill="#ca4514" fill-rule="evenodd"></path><path id="path1" d="M213.092 187.163 C 212.267 187.302,210.788 187.876,209.806 188.438 C 206.807 190.153,206.835 190.008,206.825 203.648 C 206.816 216.343,206.758 216.827,204.997 218.869 C 204.342 219.629,203.450 220.857,203.013 221.597 C 201.548 224.084,198.930 227.673,198.445 227.858 C 198.181 227.960,197.585 228.656,197.120 229.406 C 196.656 230.156,195.950 231.126,195.551 231.562 C 195.153 231.998,194.471 232.998,194.035 233.783 C 192.929 235.777,192.050 236.363,190.538 236.113 C 188.630 235.797,188.677 236.379,188.599 212.189 C 188.560 200.051,188.416 189.937,188.278 189.714 C 187.688 188.760,185.916 188.422,181.501 188.422 C 175.687 188.422,173.884 189.102,172.451 191.835 C 172.129 192.450,171.458 193.515,170.961 194.202 C 170.463 194.889,169.890 195.975,169.687 196.615 C 169.483 197.256,168.709 198.422,167.967 199.207 C 167.224 199.992,166.451 201.133,166.248 201.743 C 165.848 202.945,163.947 206.287,162.126 208.992 C 161.497 209.926,160.555 211.526,160.032 212.549 C 159.508 213.572,158.707 214.806,158.251 215.293 C 157.795 215.780,157.037 217.034,156.567 218.081 C 156.098 219.128,155.374 220.341,154.959 220.777 C 154.544 221.213,153.906 222.268,153.542 223.121 C 152.820 224.810,150.008 228.532,149.077 229.031 C 146.953 230.167,146.868 229.380,146.868 208.764 C 146.868 189.913,146.803 188.966,145.499 188.617 C 144.149 188.254,139.707 188.436,137.986 188.924 C 134.203 189.996,131.091 190.626,129.544 190.634 C 127.115 190.646,124.881 191.155,122.676 192.197 C 121.588 192.711,119.868 193.310,118.854 193.528 C 116.790 193.972,116.098 194.784,116.098 196.763 C 116.098 198.670,116.661 198.886,122.342 199.164 C 125.122 199.300,127.549 199.506,127.735 199.621 C 128.736 200.240,128.842 202.821,128.806 225.881 C 128.767 251.838,128.776 251.972,130.635 252.488 C 132.207 252.925,141.161 252.904,142.925 252.459 C 144.498 252.063,145.510 251.058,146.702 248.706 C 147.115 247.891,147.690 247.027,147.980 246.786 C 148.271 246.545,149.057 245.256,149.728 243.922 C 150.399 242.587,151.289 241.081,151.706 240.573 C 152.122 240.066,152.827 239.009,153.272 238.224 C 156.605 232.342,157.375 231.079,158.089 230.335 C 158.533 229.871,159.115 228.874,159.381 228.120 C 159.843 226.811,161.951 223.367,163.988 220.594 C 164.511 219.883,165.190 218.615,165.498 217.776 C 166.364 215.421,168.527 214.456,170.125 215.713 L 170.978 216.384 170.931 233.652 C 170.874 255.035,169.825 252.980,180.676 252.749 C 189.249 252.567,189.056 252.657,192.360 247.297 C 192.694 246.756,193.629 245.527,194.438 244.568 C 195.247 243.608,196.234 242.289,196.631 241.636 C 197.028 240.982,197.539 240.340,197.766 240.208 C 198.324 239.883,202.148 234.832,202.823 233.528 C 203.120 232.952,203.575 232.400,203.834 232.301 C 204.093 232.202,204.754 231.459,205.303 230.652 C 206.290 229.201,207.653 227.519,210.176 224.635 C 210.888 223.822,212.004 222.264,212.657 221.174 C 213.310 220.083,213.957 219.191,214.094 219.191 C 214.231 219.191,214.871 218.335,215.518 217.288 C 216.164 216.241,216.814 215.385,216.963 215.385 C 217.112 215.385,217.779 214.635,218.446 213.719 C 219.113 212.803,219.978 211.796,220.369 211.481 C 220.760 211.167,221.376 210.240,221.737 209.424 C 222.099 208.607,222.673 207.641,223.014 207.278 C 223.733 206.513,226.509 199.264,226.717 197.611 C 226.874 196.357,225.944 193.982,224.118 190.977 C 222.310 188.000,217.662 186.393,213.092 187.163 M262.172 187.149 C 255.082 187.427,254.655 187.504,251.546 189.052 C 250.238 189.704,248.402 190.417,247.468 190.638 C 246.533 190.859,245.319 191.425,244.771 191.896 C 244.223 192.368,243.124 193.194,242.329 193.733 C 237.569 196.959,232.982 202.943,231.217 208.232 C 230.748 209.636,229.956 211.642,229.457 212.688 C 228.322 215.068,228.040 226.347,229.068 228.232 C 229.354 228.755,230.112 230.753,230.752 232.672 C 231.393 234.592,232.390 236.947,232.967 237.906 C 233.545 238.866,234.190 240.186,234.400 240.840 C 234.611 241.493,235.081 242.237,235.445 242.492 C 235.809 242.747,237.315 244.139,238.793 245.586 C 242.527 249.243,246.863 251.709,250.735 252.378 C 252.141 252.621,254.362 253.190,255.670 253.643 C 259.936 255.117,267.974 255.039,271.558 253.488 C 272.328 253.155,274.721 252.647,276.876 252.360 C 280.219 251.915,281.160 251.654,283.282 250.587 C 284.650 249.899,286.456 249.188,287.294 249.007 C 290.811 248.245,291.322 247.472,291.711 242.326 C 292.032 238.082,291.119 237.303,287.858 239.038 C 287.016 239.485,285.460 240.069,284.401 240.334 C 283.341 240.599,281.975 241.150,281.364 241.558 C 278.731 243.318,269.818 244.158,265.859 243.018 C 259.266 241.120,253.157 233.125,252.339 225.325 C 252.099 223.035,251.723 220.293,251.504 219.231 C 251.163 217.581,251.183 216.900,251.643 214.519 C 251.939 212.989,252.325 210.337,252.502 208.625 C 252.825 205.487,253.082 204.697,254.651 202.020 C 255.683 200.257,258.976 196.723,260.283 195.973 C 260.799 195.677,261.807 194.989,262.523 194.443 C 264.142 193.209,265.681 192.842,267.560 193.243 C 269.761 193.712,269.852 194.053,270.016 202.379 C 270.174 210.381,270.169 210.355,271.787 211.049 C 282.658 215.710,291.761 211.304,290.568 201.959 C 289.736 195.439,287.628 192.715,280.929 189.501 C 276.966 187.599,277.134 187.636,269.786 187.040 C 268.914 186.970,265.487 187.018,262.172 187.149 M52.339 188.905 C 50.508 189.674,48.652 190.310,48.216 190.320 C 46.471 190.356,42.937 191.318,41.170 192.238 C 39.915 192.891,38.417 193.339,36.611 193.599 C 33.556 194.040,32.679 194.804,32.675 197.029 C 32.671 198.806,33.394 199.102,38.132 199.259 C 42.487 199.404,42.986 199.595,43.966 201.490 C 44.796 203.095,44.607 272.437,43.769 274.080 C 42.904 275.776,41.248 276.770,38.299 277.365 C 34.799 278.072,33.941 278.575,33.941 279.922 C 33.941 282.810,35.253 282.984,56.262 282.879 L 73.648 282.791 74.413 281.901 C 76.297 279.711,75.042 277.762,71.531 277.426 C 68.403 277.127,67.263 276.765,65.893 275.634 C 63.653 273.783,63.631 273.669,63.712 264.116 C 63.811 252.269,63.759 252.345,71.531 252.658 C 74.617 252.782,78.326 252.684,82.088 252.380 L 87.888 251.910 90.811 250.484 C 92.419 249.699,94.306 248.957,95.004 248.833 C 95.961 248.664,96.702 248.180,98.017 246.866 C 98.977 245.908,100.359 244.713,101.089 244.211 C 101.819 243.709,102.734 242.834,103.122 242.267 C 103.510 241.701,104.207 240.809,104.670 240.285 C 106.700 237.992,109.139 233.532,109.561 231.343 C 109.790 230.155,110.456 227.827,111.041 226.170 C 112.612 221.715,112.650 214.531,111.125 210.151 C 110.578 208.580,109.869 206.154,109.549 204.758 C 109.172 203.109,108.594 201.665,107.901 200.634 C 107.314 199.762,106.560 198.514,106.227 197.861 C 104.971 195.403,100.118 191.161,96.455 189.318 L 93.101 187.630 87.202 187.532 L 81.304 187.433 78.638 188.833 C 77.171 189.603,75.218 190.480,74.296 190.783 C 73.375 191.086,72.233 191.657,71.759 192.051 C 70.461 193.131,69.833 193.383,67.407 193.799 L 65.186 194.180 64.295 193.125 C 63.521 192.208,63.430 191.892,63.601 190.722 C 64.129 187.105,58.709 186.230,52.339 188.905 M78.668 200.057 C 82.485 201.769,86.897 205.747,87.928 208.406 C 88.934 210.996,90.722 219.348,90.722 221.453 C 90.722 222.431,89.235 230.649,88.334 234.650 C 88.246 235.039,87.534 236.079,86.752 236.960 C 85.969 237.841,85.329 238.703,85.329 238.876 C 85.329 240.010,80.434 243.933,77.094 245.476 C 74.784 246.542,67.749 246.889,65.930 246.026 C 63.569 244.906,63.670 245.937,63.733 223.391 C 63.796 201.113,63.747 201.647,65.852 200.267 C 67.766 199.014,76.040 198.877,78.668 200.057 " stroke="none" fill="#131313" fill-rule="evenodd"></path><path id="path2" d="M0.000 158.604 L 0.000 317.209 200.000 317.209 L 400.000 317.209 400.000 158.604 L 400.000 0.000 200.000 0.000 L 0.000 0.000 0.000 158.604 M317.104 17.176 C 319.189 17.701,320.056 19.599,320.060 23.649 C 320.066 29.156,322.472 32.035,327.075 32.043 C 331.164 32.050,331.315 32.319,330.995 39.022 C 330.686 45.480,331.622 48.512,334.231 49.504 C 334.675 49.673,340.987 49.802,348.807 49.802 C 363.664 49.802,363.938 49.830,364.848 51.470 C 365.146 52.009,365.283 57.525,365.412 74.227 L 365.583 96.273 366.376 97.455 C 367.424 99.017,368.415 99.265,374.193 99.412 C 379.639 99.551,381.056 99.978,381.578 101.642 C 381.819 102.410,382.118 123.904,381.955 128.725 C 381.892 130.564,380.223 131.032,373.231 131.170 C 369.586 131.242,366.673 131.462,365.373 131.764 C 363.678 132.157,276.019 132.852,258.798 132.609 C 256.411 132.576,256.286 132.913,256.133 139.859 C 255.978 146.899,255.899 147.148,253.545 147.950 C 250.978 148.825,192.791 148.637,191.028 147.749 C 189.015 146.733,187.951 138.844,189.080 133.303 C 189.672 130.396,187.706 130.585,216.557 130.663 C 242.635 130.734,252.794 130.533,253.614 129.930 C 254.032 129.622,254.109 123.860,254.252 82.633 C 254.341 56.812,254.498 34.830,254.601 33.783 C 254.704 32.736,254.882 29.167,254.998 25.852 C 255.223 19.379,255.571 17.899,257.035 17.192 C 258.057 16.698,315.146 16.683,317.104 17.176 M270.324 184.449 C 271.143 184.522,272.267 184.816,272.821 185.103 C 273.376 185.389,275.417 185.829,277.359 186.079 C 279.837 186.399,281.124 186.717,281.681 187.149 C 282.117 187.486,283.210 188.111,284.108 188.536 C 291.744 192.151,295.695 202.703,291.682 208.766 C 291.241 209.433,290.880 210.119,290.880 210.291 C 290.880 211.151,288.648 212.999,286.150 214.208 C 282.419 216.013,277.497 216.171,274.068 214.596 C 267.238 211.457,267.642 212.164,267.482 203.099 C 267.329 194.429,267.202 194.064,264.906 195.728 C 264.161 196.267,262.834 196.940,261.957 197.224 C 260.732 197.619,260.167 198.031,259.523 198.996 C 259.061 199.688,258.572 200.411,258.435 200.603 C 258.298 200.795,257.183 202.736,255.957 204.917 L 253.729 208.882 253.723 217.227 L 253.717 225.572 255.854 230.052 C 258.280 235.138,259.966 237.067,263.876 239.228 C 265.033 239.867,266.550 240.715,267.248 241.111 C 269.679 242.493,274.540 242.161,278.244 240.360 C 279.873 239.568,281.668 238.838,282.234 238.739 C 283.188 238.571,283.984 238.226,286.675 236.815 C 289.813 235.171,293.262 235.539,293.944 237.593 C 294.605 239.581,294.188 245.908,293.277 247.705 C 292.453 249.330,292.904 249.058,286.122 252.024 C 284.692 252.649,282.693 253.212,281.111 253.435 C 279.337 253.685,278.122 254.049,277.380 254.552 C 276.148 255.388,275.673 255.486,269.627 256.147 C 260.548 257.140,250.983 256.239,249.318 254.233 C 249.113 253.986,248.424 253.695,247.787 253.587 C 247.151 253.478,246.113 253.260,245.482 253.102 C 244.226 252.786,240.699 250.321,238.699 248.360 C 238.002 247.675,236.703 246.435,235.814 245.604 C 234.925 244.772,234.029 243.774,233.824 243.385 C 233.619 242.997,232.747 241.748,231.886 240.611 C 230.796 239.171,230.115 237.846,229.642 236.243 C 229.268 234.977,228.690 233.495,228.357 232.949 C 226.237 229.475,226.417 211.193,228.596 208.690 C 228.840 208.410,229.327 207.145,229.677 205.879 C 230.280 203.706,230.788 202.806,232.906 200.159 C 233.395 199.548,234.185 198.554,234.661 197.949 C 236.251 195.931,239.228 193.166,240.523 192.505 C 241.227 192.146,242.136 191.456,242.543 190.973 C 244.154 189.059,250.091 186.708,254.929 186.068 C 257.051 185.787,259.296 185.345,259.919 185.085 C 262.178 184.141,264.954 183.971,270.324 184.449 M217.993 184.920 C 218.739 185.262,220.144 185.758,221.114 186.022 C 223.583 186.694,224.814 187.641,226.136 189.891 C 226.765 190.960,227.550 192.215,227.880 192.679 C 229.146 194.459,228.984 200.781,227.621 202.790 C 227.207 203.399,226.645 204.667,226.372 205.606 C 226.069 206.650,225.202 208.202,224.142 209.602 C 223.188 210.861,222.320 212.165,222.214 212.499 C 222.108 212.834,221.672 213.336,221.245 213.616 C 220.818 213.896,220.173 214.704,219.812 215.411 C 219.451 216.119,218.414 217.523,217.508 218.532 C 215.057 221.261,214.202 222.339,212.960 224.266 C 212.342 225.226,211.529 226.299,211.152 226.651 C 210.776 227.003,210.073 227.895,209.591 228.633 C 209.109 229.372,208.590 229.976,208.438 229.976 C 208.286 229.976,207.912 230.511,207.606 231.166 C 207.301 231.820,206.322 233.167,205.429 234.159 C 203.144 236.700,202.109 238.023,200.556 240.388 C 199.811 241.522,198.915 242.651,198.565 242.896 C 198.216 243.141,197.647 243.895,197.302 244.572 C 196.956 245.249,196.482 245.917,196.247 246.058 C 195.831 246.306,192.287 250.871,191.209 252.547 C 190.911 253.010,189.841 253.866,188.831 254.450 L 186.994 255.511 179.051 255.511 C 167.185 255.511,168.137 257.171,168.128 236.470 C 168.121 223.203,168.057 221.145,167.627 220.531 C 166.981 219.608,166.650 219.640,166.397 220.649 C 166.283 221.102,165.782 221.851,165.284 222.314 C 164.785 222.777,164.157 223.816,163.887 224.623 C 163.618 225.430,162.743 227.025,161.944 228.169 C 161.144 229.312,160.345 230.666,160.167 231.177 C 159.989 231.688,159.492 232.294,159.062 232.523 C 158.571 232.786,158.157 233.406,157.944 234.197 C 157.758 234.887,157.152 236.134,156.598 236.967 C 156.044 237.800,155.163 239.222,154.639 240.128 C 154.116 241.033,153.368 242.172,152.978 242.657 C 152.587 243.143,151.836 244.503,151.308 245.679 C 150.780 246.855,149.941 248.336,149.443 248.968 C 148.945 249.601,148.248 250.692,147.893 251.393 C 147.249 252.663,144.769 254.652,142.992 255.322 C 142.518 255.500,139.237 255.663,135.702 255.684 L 129.273 255.721 128.591 254.928 C 127.305 253.432,127.198 251.289,127.205 227.162 C 127.212 202.320,127.262 203.058,125.490 201.896 C 124.860 201.483,120.199 200.847,117.490 200.804 C 116.922 200.795,115.654 199.991,113.957 198.564 C 113.423 198.115,113.454 195.574,114.006 194.512 C 115.051 192.504,117.946 190.834,121.864 189.979 C 123.462 189.630,124.862 189.288,124.974 189.219 C 125.086 189.149,126.533 188.875,128.190 188.608 C 129.846 188.341,131.836 187.850,132.611 187.516 C 135.344 186.338,145.361 185.808,147.161 186.745 C 149.016 187.711,149.055 188.072,149.075 204.048 C 149.093 218.697,149.261 223.188,149.804 223.524 C 150.157 223.742,152.448 221.249,152.766 220.301 C 152.883 219.952,153.452 219.140,154.030 218.495 C 154.608 217.851,155.243 216.709,155.442 215.958 C 155.640 215.206,156.412 213.807,157.157 212.847 C 157.902 211.887,158.796 210.457,159.143 209.668 C 159.489 208.879,160.002 208.005,160.282 207.726 C 160.561 207.446,161.312 206.236,161.950 205.036 C 162.589 203.836,163.504 202.353,163.985 201.740 C 164.465 201.127,164.966 200.287,165.097 199.873 C 165.228 199.459,165.807 198.503,166.383 197.749 C 166.959 196.994,167.523 195.952,167.637 195.434 C 167.751 194.916,168.394 193.867,169.066 193.104 C 169.738 192.340,170.597 191.082,170.974 190.307 C 171.351 189.532,171.767 188.691,171.898 188.438 C 172.820 186.649,176.019 186.052,183.347 186.300 C 192.179 186.598,191.291 183.898,191.268 210.403 C 191.248 232.104,191.293 233.140,192.192 231.785 C 192.474 231.360,193.153 230.636,193.703 230.176 C 194.252 229.716,195.139 228.657,195.675 227.822 C 196.211 226.987,197.062 225.999,197.567 225.626 C 198.071 225.253,198.567 224.534,198.668 224.029 C 198.769 223.524,199.268 222.693,199.778 222.182 C 200.287 221.671,201.214 220.445,201.837 219.457 C 202.460 218.470,203.252 217.572,203.596 217.463 C 204.680 217.119,204.739 216.479,204.909 203.172 C 205.056 191.689,205.139 190.050,205.619 189.173 C 206.392 187.762,207.901 186.590,209.451 186.198 C 210.185 186.013,211.499 185.515,212.371 185.091 C 214.310 184.150,216.189 184.093,217.993 184.920 M64.443 185.914 C 65.902 186.653,66.801 188.713,66.496 190.618 C 66.190 192.530,68.589 192.922,69.421 191.096 C 69.627 190.645,70.309 190.080,70.976 189.808 C 71.630 189.542,73.493 188.681,75.116 187.894 C 79.990 185.530,92.926 184.956,96.645 186.939 C 97.138 187.202,98.458 187.876,99.578 188.437 C 102.456 189.879,107.667 195.018,108.156 196.896 C 108.347 197.631,108.797 198.438,109.156 198.689 C 109.761 199.113,110.660 201.049,110.692 201.997 C 110.700 202.223,111.350 203.733,112.138 205.352 C 115.348 211.952,114.937 226.771,111.381 232.624 C 111.046 233.174,110.675 234.226,110.555 234.961 C 110.432 235.714,109.918 236.823,109.378 237.499 C 108.851 238.159,108.132 239.309,107.780 240.054 C 107.428 240.799,106.515 241.959,105.751 242.632 C 104.987 243.304,104.362 243.994,104.362 244.164 C 104.362 244.689,102.535 246.418,101.275 247.085 C 100.618 247.433,99.663 248.152,99.154 248.681 C 98.645 249.210,98.091 249.643,97.923 249.643 C 97.755 249.643,96.379 250.352,94.865 251.218 C 92.102 252.799,88.387 253.762,85.032 253.766 C 84.381 253.766,83.671 254.022,83.267 254.401 C 82.154 255.447,79.381 255.767,73.196 255.561 L 67.566 255.374 67.045 256.170 C 66.477 257.036,66.216 271.900,66.754 272.769 C 67.257 273.583,71.463 275.337,72.911 275.337 C 74.146 275.337,74.478 275.504,75.738 276.764 L 77.165 278.192 77.013 280.559 C 76.742 284.789,77.786 284.614,53.608 284.482 C 32.585 284.367,33.422 284.447,32.117 282.426 C 30.186 279.433,32.822 275.729,37.478 274.894 C 38.897 274.639,40.327 273.947,41.021 273.180 C 41.680 272.452,41.874 204.956,41.222 203.100 C 40.773 201.820,39.561 201.432,36.003 201.429 L 33.466 201.427 32.229 200.152 C 29.207 197.037,30.588 192.837,34.831 192.237 C 35.959 192.078,37.216 191.643,37.948 191.159 C 39.231 190.311,43.850 188.773,47.105 188.109 C 48.152 187.896,49.225 187.530,49.490 187.296 C 49.755 187.062,51.753 186.575,53.931 186.213 C 56.109 185.851,58.533 185.429,59.318 185.275 C 61.104 184.924,62.941 185.153,64.443 185.914 M69.792 201.742 C 67.902 202.034,66.639 203.073,66.585 204.379 C 66.455 207.591,66.630 242.333,66.780 243.018 C 67.178 244.829,70.507 244.828,76.072 243.013 L 79.924 241.757 82.150 239.435 C 83.374 238.158,84.376 236.981,84.376 236.819 C 84.377 236.658,84.883 235.791,85.501 234.893 C 86.602 233.295,86.639 233.140,87.268 227.416 C 87.990 220.855,87.895 218.537,86.601 211.022 C 86.158 208.451,82.508 204.396,79.790 203.455 C 78.727 203.087,77.427 202.563,76.900 202.291 C 75.699 201.669,72.075 201.390,69.792 201.742 " stroke="none" fill="#fbfbfb" fill-rule="evenodd"></path><path id="path3" d="M260.428 17.808 C 256.330 19.096,254.827 21.623,255.190 26.613 C 255.325 28.463,255.411 30.404,255.381 30.928 C 255.007 37.543,255.076 68.520,255.492 80.888 C 255.765 89.001,255.988 96.340,255.988 97.198 C 255.988 98.056,256.083 98.662,256.200 98.545 C 256.424 98.321,256.451 97.225,256.945 68.200 C 257.326 45.840,257.679 32.460,257.894 32.246 C 257.983 32.157,258.840 32.376,259.797 32.732 C 260.755 33.088,261.967 33.368,262.490 33.354 C 265.375 33.279,266.302 33.324,266.375 33.541 C 266.462 33.800,301.078 33.760,303.727 33.498 C 306.348 33.238,312.522 33.321,313.402 33.628 C 313.489 33.658,314.149 33.660,314.869 33.632 L 316.178 33.581 316.327 35.585 C 316.524 38.221,316.243 43.140,315.896 43.140 C 315.745 43.140,315.623 42.962,315.623 42.744 C 315.623 42.229,313.489 40.523,313.276 40.867 C 313.069 41.203,309.709 41.965,308.565 41.936 C 307.541 41.910,307.426 42.341,308.327 42.823 C 309.433 43.415,309.105 44.092,307.711 44.092 C 307.023 44.092,306.373 44.235,306.265 44.409 C 306.139 44.612,307.155 44.726,309.086 44.726 C 310.745 44.726,312.913 44.938,313.903 45.196 C 314.894 45.454,315.802 45.605,315.920 45.532 C 316.038 45.459,316.170 45.982,316.212 46.695 C 316.325 48.619,316.314 48.597,317.693 49.676 C 319.507 51.094,320.692 52.918,320.667 54.252 C 320.359 70.614,320.478 94.228,320.874 95.332 C 321.591 97.333,322.701 97.812,326.716 97.856 C 329.846 97.890,330.195 97.961,332.276 98.986 L 334.496 100.079 349.191 100.133 L 363.886 100.188 364.959 101.402 C 366.146 102.745,366.208 102.616,365.745 99.762 C 365.576 98.715,365.370 87.795,365.288 75.496 C 365.133 52.151,365.070 51.118,363.745 50.361 C 363.221 50.061,359.372 49.920,348.454 49.802 C 331.591 49.618,331.516 49.606,330.188 46.874 C 329.658 45.781,329.140 45.296,327.724 44.565 C 325.469 43.401,325.492 43.439,325.687 41.115 C 325.814 39.612,326.040 38.961,326.691 38.224 C 328.556 36.112,329.032 35.220,328.403 35.012 C 325.754 34.136,324.506 33.196,322.091 30.258 L 319.588 27.212 319.588 24.623 C 319.588 19.721,317.803 18.115,311.622 17.453 C 305.570 16.805,262.674 17.102,260.428 17.808 M266.349 41.766 C 265.946 42.170,266.141 43.391,266.640 43.582 C 266.916 43.688,273.767 43.775,281.866 43.775 C 294.743 43.775,296.590 43.834,296.590 44.251 C 296.590 44.512,296.733 44.726,296.907 44.726 C 297.338 44.726,297.308 43.354,296.856 42.362 L 296.488 41.554 281.525 41.554 C 273.295 41.554,266.466 41.649,266.349 41.766 M297.734 42.056 C 297.369 43.007,297.543 43.995,298.176 44.568 C 298.845 45.173,299.079 44.805,298.435 44.161 C 298.229 43.954,298.142 43.703,298.243 43.602 C 298.344 43.502,298.807 43.800,299.272 44.265 C 300.198 45.192,300.822 45.088,299.972 44.148 C 299.290 43.395,299.301 42.526,300.000 41.996 C 300.305 41.764,300.394 41.570,300.197 41.564 C 300.001 41.559,299.662 41.768,299.445 42.030 C 299.228 42.292,298.925 42.506,298.772 42.506 C 298.619 42.506,298.493 42.292,298.493 42.030 C 298.493 41.402,297.978 41.420,297.734 42.056 M302.423 42.882 L 302.625 43.893 301.907 43.246 C 300.737 42.193,300.451 42.129,300.070 42.841 C 299.294 44.290,301.824 45.351,303.669 44.350 C 304.050 44.144,304.861 43.880,305.472 43.765 C 306.413 43.587,306.486 43.518,305.948 43.309 C 305.599 43.174,304.733 42.796,304.024 42.468 C 302.304 41.673,302.187 41.703,302.423 42.882 M365.853 108.961 C 365.851 111.927,365.781 117.708,365.696 121.808 C 365.607 126.145,365.650 128.599,365.801 127.676 C 366.138 125.603,366.359 107.568,366.075 105.313 C 365.933 104.186,365.854 105.478,365.853 108.961 M364.658 129.976 C 364.345 130.290,340.408 130.595,295.068 130.864 C 274.778 130.984,258.241 131.146,258.318 131.223 C 258.541 131.446,298.268 131.740,332.331 131.771 C 366.349 131.803,364.762 131.882,365.351 130.116 C 365.491 129.697,365.029 129.604,364.658 129.976 " stroke="none" fill="#eda52f" fill-rule="evenodd"></path><path id="path4" d="M257.035 17.192 C 256.104 17.641,255.275 19.465,255.117 21.412 L 254.987 22.998 255.929 21.412 C 258.548 17.003,257.778 17.113,285.900 17.148 C 315.549 17.186,316.543 17.284,318.526 20.380 C 319.528 21.946,319.584 22.182,319.516 24.580 C 319.445 27.060,319.470 27.152,320.531 28.390 L 321.619 29.659 320.841 28.099 C 320.188 26.789,320.063 26.075,320.060 23.658 C 320.056 19.599,319.191 17.701,317.104 17.176 C 315.146 16.683,258.057 16.698,257.035 17.192 M254.789 31.721 C 254.531 34.454,254.365 50.271,254.252 82.633 C 254.109 123.859,254.032 129.622,253.614 129.930 C 252.794 130.533,242.635 130.734,216.557 130.663 C 187.706 130.585,189.672 130.396,189.080 133.303 C 187.951 138.844,189.015 146.733,191.028 147.749 C 192.791 148.637,250.978 148.825,253.545 147.950 C 255.899 147.148,255.978 146.899,256.133 139.859 C 256.286 132.913,256.411 132.576,258.798 132.609 C 276.019 132.852,363.678 132.157,365.373 131.764 C 366.673 131.462,369.586 131.242,373.231 131.170 C 380.223 131.032,381.892 130.564,381.955 128.725 C 382.118 123.904,381.819 102.410,381.578 101.642 C 381.056 99.978,379.639 99.551,374.193 99.412 C 368.837 99.276,367.281 98.969,366.732 97.940 C 365.428 95.495,365.360 95.490,365.588 97.859 C 366.717 109.612,366.501 128.293,365.211 130.320 C 364.065 132.122,365.887 132.058,323.711 131.786 C 302.427 131.648,279.231 131.513,272.165 131.486 C 258.301 131.431,257.587 131.370,256.626 130.147 C 256.004 129.357,255.987 128.885,255.980 112.011 C 255.976 102.483,255.765 88.763,255.511 81.523 C 254.990 66.637,254.884 35.714,255.345 32.831 C 255.512 31.784,255.540 30.214,255.406 29.342 C 255.180 27.872,255.135 28.047,254.789 31.721 M323.352 31.792 C 324.436 33.129,326.300 34.317,328.403 35.012 C 329.032 35.220,328.556 36.112,326.691 38.224 C 326.040 38.961,325.814 39.612,325.687 41.115 C 325.491 43.441,325.467 43.400,327.741 44.574 C 329.121 45.287,329.678 45.792,330.090 46.705 C 330.728 48.122,330.981 48.356,332.609 49.036 L 333.845 49.552 332.857 48.542 C 331.194 46.841,330.733 44.485,330.995 39.022 C 331.315 32.326,331.161 32.050,327.100 32.043 C 324.720 32.039,324.348 31.953,323.299 31.166 L 322.136 30.293 323.352 31.792 M365.214 59.952 C 365.214 61.261,365.270 61.796,365.338 61.142 C 365.407 60.488,365.407 59.417,365.338 58.763 C 365.270 58.109,365.214 58.644,365.214 59.952 M365.228 78.826 C 365.229 80.920,365.280 81.735,365.342 80.638 C 365.404 79.541,365.404 77.828,365.341 76.831 C 365.278 75.835,365.228 76.733,365.228 78.826 M252.461 132.733 C 254.727 133.904,254.899 143.493,252.690 145.567 C 251.438 146.743,249.113 146.839,221.178 146.868 C 189.326 146.900,191.427 147.202,190.935 142.515 C 190.201 135.510,190.667 132.875,192.726 132.389 C 195.127 131.822,251.325 132.145,252.461 132.733 M262.722 184.346 C 261.803 184.492,260.541 184.825,259.919 185.085 C 259.296 185.345,257.051 185.787,254.929 186.068 C 250.091 186.708,244.154 189.059,242.543 190.973 C 242.136 191.456,241.227 192.146,240.523 192.505 C 239.228 193.166,236.251 195.931,234.661 197.949 C 234.185 198.554,233.395 199.548,232.906 200.159 C 230.788 202.806,230.280 203.706,229.677 205.879 C 229.327 207.145,228.840 208.410,228.596 208.690 C 226.417 211.193,226.237 229.475,228.357 232.949 C 228.690 233.495,229.268 234.977,229.642 236.243 C 230.115 237.846,230.796 239.171,231.886 240.611 C 232.747 241.748,233.619 242.997,233.824 243.385 C 234.029 243.774,234.925 244.772,235.814 245.604 C 236.703 246.435,238.002 247.675,238.699 248.360 C 240.699 250.321,244.226 252.786,245.482 253.102 C 246.113 253.260,247.151 253.478,247.787 253.587 C 248.424 253.695,249.113 253.986,249.318 254.233 C 250.983 256.239,260.548 257.140,269.627 256.147 C 275.673 255.486,276.148 255.388,277.380 254.552 C 278.122 254.049,279.337 253.685,281.111 253.435 C 282.693 253.212,284.692 252.649,286.122 252.024 C 292.904 249.058,292.453 249.330,293.277 247.705 C 294.188 245.908,294.605 239.581,293.944 237.593 C 293.262 235.539,289.813 235.171,286.675 236.815 C 283.984 238.226,283.188 238.571,282.234 238.739 C 281.668 238.838,279.873 239.568,278.244 240.360 C 274.540 242.161,269.679 242.493,267.248 241.111 C 266.550 240.715,265.033 239.867,263.876 239.228 C 259.966 237.067,258.280 235.138,255.854 230.052 L 253.717 225.572 253.723 217.227 L 253.729 208.882 255.957 204.917 C 257.183 202.736,258.298 200.795,258.435 200.603 C 258.572 200.411,259.061 199.688,259.523 198.996 C 260.167 198.031,260.732 197.619,261.957 197.224 C 262.834 196.940,264.161 196.267,264.906 195.728 C 267.202 194.064,267.329 194.429,267.482 203.099 C 267.642 212.164,267.238 211.457,274.068 214.596 C 277.497 216.171,282.419 216.013,286.150 214.208 C 288.648 212.999,290.880 211.151,290.880 210.291 C 290.880 210.119,291.241 209.433,291.682 208.766 C 295.695 202.703,291.744 192.151,284.108 188.536 C 283.210 188.111,282.117 187.486,281.681 187.149 C 281.124 186.717,279.837 186.399,277.359 186.079 C 275.417 185.829,273.376 185.389,272.821 185.103 C 272.267 184.816,271.143 184.522,270.324 184.449 C 266.765 184.132,264.280 184.099,262.722 184.346 M212.371 185.091 C 211.499 185.515,210.185 186.013,209.451 186.198 C 207.901 186.590,206.392 187.762,205.619 189.173 C 205.139 190.050,205.056 191.689,204.909 203.172 C 204.739 216.479,204.680 217.119,203.596 217.463 C 203.252 217.572,202.460 218.470,201.837 219.457 C 201.214 220.445,200.287 221.671,199.778 222.182 C 199.268 222.693,198.769 223.524,198.668 224.029 C 198.567 224.534,198.071 225.253,197.567 225.626 C 197.062 225.999,196.211 226.987,195.675 227.822 C 195.139 228.657,194.252 229.716,193.703 230.176 C 193.153 230.636,192.474 231.360,192.192 231.785 C 191.293 233.140,191.248 232.104,191.268 210.403 C 191.291 183.898,192.179 186.598,183.347 186.300 C 176.019 186.052,172.820 186.649,171.898 188.438 C 171.767 188.691,171.351 189.532,170.974 190.307 C 170.597 191.082,169.738 192.340,169.066 193.104 C 168.394 193.867,167.751 194.916,167.637 195.434 C 167.523 195.952,166.959 196.994,166.383 197.749 C 165.807 198.503,165.228 199.459,165.097 199.873 C 164.966 200.287,164.465 201.127,163.985 201.740 C 163.504 202.353,162.589 203.836,161.950 205.036 C 161.312 206.236,160.561 207.446,160.282 207.726 C 160.002 208.005,159.489 208.879,159.143 209.668 C 158.796 210.457,157.902 211.887,157.157 212.847 C 156.412 213.807,155.640 215.206,155.442 215.958 C 155.243 216.709,154.608 217.851,154.030 218.495 C 153.452 219.140,152.883 219.952,152.766 220.301 C 152.448 221.249,150.157 223.742,149.804 223.524 C 149.261 223.188,149.093 218.697,149.075 204.048 C 149.055 188.072,149.016 187.711,147.161 186.745 C 145.361 185.808,135.344 186.338,132.611 187.516 C 131.836 187.850,129.846 188.341,128.190 188.608 C 126.533 188.875,125.086 189.149,124.974 189.219 C 124.862 189.288,123.462 189.630,121.864 189.979 C 117.946 190.834,115.051 192.504,114.006 194.512 C 113.454 195.574,113.423 198.115,113.957 198.564 C 115.654 199.991,116.922 200.795,117.490 200.804 C 120.199 200.847,124.860 201.483,125.490 201.896 C 127.262 203.058,127.212 202.320,127.205 227.162 C 127.198 251.289,127.305 253.432,128.591 254.928 L 129.273 255.721 135.702 255.684 C 139.237 255.663,142.518 255.500,142.992 255.322 C 144.769 254.652,147.249 252.663,147.893 251.393 C 148.248 250.692,148.945 249.601,149.443 248.968 C 149.941 248.336,150.780 246.855,151.308 245.679 C 151.836 244.503,152.587 243.143,152.978 242.657 C 153.368 242.172,154.116 241.033,154.639 240.128 C 155.163 239.222,156.044 237.800,156.598 236.967 C 157.152 236.134,157.758 234.887,157.944 234.197 C 158.157 233.406,158.571 232.786,159.062 232.523 C 159.492 232.294,159.989 231.688,160.167 231.177 C 160.345 230.666,161.144 229.312,161.944 228.169 C 162.743 227.025,163.618 225.430,163.887 224.623 C 164.157 223.816,164.785 222.777,165.284 222.314 C 165.782 221.851,166.283 221.102,166.397 220.649 C 166.650 219.640,166.981 219.608,167.627 220.531 C 168.057 221.145,168.121 223.203,168.128 236.470 C 168.137 257.171,167.185 255.511,179.051 255.511 L 186.994 255.511 188.831 254.450 C 189.841 253.866,190.911 253.010,191.209 252.547 C 192.287 250.871,195.831 246.306,196.247 246.058 C 196.482 245.917,196.956 245.249,197.302 244.572 C 197.647 243.895,198.216 243.141,198.565 242.896 C 198.915 242.651,199.811 241.522,200.556 240.388 C 202.109 238.023,203.144 236.700,205.429 234.159 C 206.322 233.167,207.301 231.820,207.606 231.166 C 207.912 230.511,208.286 229.976,208.438 229.976 C 208.590 229.976,209.109 229.372,209.591 228.633 C 210.073 227.895,210.776 227.003,211.152 226.651 C 211.529 226.299,212.342 225.226,212.960 224.266 C 214.202 222.339,215.057 221.261,217.508 218.532 C 218.414 217.523,219.451 216.119,219.812 215.411 C 220.173 214.704,220.818 213.896,221.245 213.616 C 221.672 213.336,222.108 212.834,222.214 212.499 C 222.320 212.165,223.188 210.861,224.142 209.602 C 225.202 208.202,226.069 206.650,226.372 205.606 C 226.645 204.667,227.207 203.399,227.621 202.790 C 228.984 200.781,229.146 194.459,227.880 192.679 C 227.550 192.215,226.765 190.960,226.136 189.891 C 224.814 187.641,223.583 186.694,221.114 186.022 C 220.144 185.758,218.739 185.262,217.993 184.920 C 216.189 184.093,214.310 184.150,212.371 185.091 M59.318 185.275 C 58.533 185.429,56.109 185.851,53.931 186.213 C 51.753 186.575,49.755 187.062,49.490 187.296 C 49.225 187.530,48.152 187.896,47.105 188.109 C 43.850 188.773,39.231 190.311,37.948 191.159 C 37.216 191.643,35.959 192.078,34.831 192.237 C 30.588 192.837,29.207 197.037,32.229 200.152 L 33.466 201.427 36.003 201.429 C 39.561 201.432,40.773 201.820,41.222 203.100 C 41.874 204.956,41.680 272.452,41.021 273.180 C 40.327 273.947,38.897 274.639,37.478 274.894 C 32.822 275.729,30.186 279.433,32.117 282.426 C 33.422 284.447,32.585 284.367,53.608 284.482 C 77.786 284.614,76.742 284.789,77.013 280.559 L 77.165 278.192 75.738 276.764 C 74.478 275.504,74.146 275.337,72.911 275.337 C 71.463 275.337,67.257 273.583,66.754 272.769 C 66.216 271.900,66.477 257.036,67.045 256.170 L 67.566 255.374 73.196 255.561 C 79.381 255.767,82.154 255.447,83.267 254.401 C 83.671 254.022,84.381 253.766,85.032 253.766 C 88.387 253.762,92.102 252.799,94.865 251.218 C 96.379 250.352,97.755 249.643,97.923 249.643 C 98.091 249.643,98.645 249.210,99.154 248.681 C 99.663 248.152,100.618 247.433,101.275 247.085 C 102.535 246.418,104.362 244.689,104.362 244.164 C 104.362 243.994,104.987 243.304,105.751 242.632 C 106.515 241.959,107.428 240.799,107.780 240.054 C 108.132 239.309,108.851 238.159,109.378 237.499 C 109.918 236.823,110.432 235.714,110.555 234.961 C 110.675 234.226,111.046 233.174,111.381 232.624 C 114.937 226.771,115.348 211.952,112.138 205.352 C 111.350 203.733,110.700 202.223,110.692 201.997 C 110.660 201.049,109.761 199.113,109.156 198.689 C 108.797 198.438,108.347 197.631,108.156 196.896 C 107.667 195.018,102.456 189.879,99.578 188.437 C 98.458 187.876,97.138 187.202,96.645 186.939 C 92.926 184.956,79.990 185.530,75.116 187.894 C 73.493 188.681,71.630 189.542,70.976 189.808 C 70.309 190.080,69.627 190.645,69.421 191.096 C 68.589 192.922,66.190 192.530,66.496 190.618 C 67.095 186.870,63.776 184.398,59.318 185.275 M220.864 188.189 C 223.762 189.495,227.068 194.817,226.717 197.611 C 226.509 199.264,223.733 206.513,223.014 207.278 C 222.673 207.641,222.099 208.607,221.737 209.424 C 221.376 210.240,220.760 211.167,220.369 211.481 C 219.978 211.796,219.113 212.803,218.446 213.719 C 217.779 214.635,217.112 215.385,216.963 215.385 C 216.814 215.385,216.164 216.241,215.518 217.288 C 214.871 218.335,214.231 219.191,214.094 219.191 C 213.957 219.191,213.310 220.083,212.657 221.174 C 212.004 222.264,210.888 223.822,210.176 224.635 C 207.653 227.519,206.290 229.201,205.303 230.652 C 204.754 231.459,204.093 232.202,203.834 232.301 C 203.575 232.400,203.120 232.952,202.823 233.528 C 202.148 234.832,198.324 239.883,197.766 240.208 C 197.539 240.340,197.028 240.982,196.631 241.636 C 196.234 242.289,195.247 243.608,194.438 244.568 C 193.629 245.527,192.694 246.756,192.360 247.297 C 189.056 252.657,189.249 252.567,180.676 252.749 C 169.825 252.980,170.874 255.035,170.931 233.652 L 170.978 216.384 170.125 215.713 C 168.527 214.456,166.364 215.421,165.498 217.776 C 165.190 218.615,164.511 219.883,163.988 220.594 C 161.951 223.367,159.843 226.811,159.381 228.120 C 159.115 228.874,158.533 229.871,158.089 230.335 C 157.375 231.079,156.605 232.342,153.272 238.224 C 152.827 239.009,152.122 240.066,151.706 240.573 C 151.289 241.081,150.399 242.587,149.728 243.922 C 149.057 245.256,148.271 246.545,147.980 246.786 C 147.690 247.027,147.115 247.891,146.702 248.706 C 145.510 251.058,144.498 252.063,142.925 252.459 C 141.161 252.904,132.207 252.925,130.635 252.488 C 128.776 251.972,128.767 251.838,128.806 225.881 C 128.842 202.821,128.736 200.240,127.735 199.621 C 127.549 199.506,125.122 199.300,122.342 199.164 C 116.661 198.886,116.098 198.670,116.098 196.763 C 116.098 194.784,116.790 193.972,118.854 193.528 C 119.868 193.310,121.588 192.711,122.676 192.197 C 124.881 191.155,127.115 190.646,129.544 190.634 C 131.091 190.626,134.203 189.996,137.986 188.924 C 139.707 188.436,144.149 188.254,145.499 188.617 C 146.803 188.966,146.868 189.913,146.868 208.764 C 146.868 229.380,146.953 230.167,149.077 229.031 C 150.008 228.532,152.820 224.810,153.542 223.121 C 153.906 222.268,154.544 221.213,154.959 220.777 C 155.374 220.341,156.098 219.128,156.567 218.081 C 157.037 217.034,157.795 215.780,158.251 215.293 C 158.707 214.806,159.508 213.572,160.032 212.549 C 160.555 211.526,161.497 209.926,162.126 208.992 C 163.947 206.287,165.848 202.945,166.248 201.743 C 166.451 201.133,167.224 199.992,167.967 199.207 C 168.709 198.422,169.483 197.256,169.687 196.615 C 169.890 195.975,170.463 194.889,170.961 194.202 C 171.458 193.515,172.129 192.450,172.451 191.835 C 173.884 189.102,175.687 188.422,181.501 188.422 C 185.916 188.422,187.688 188.760,188.278 189.714 C 188.416 189.937,188.560 200.051,188.599 212.189 C 188.677 236.379,188.630 235.797,190.538 236.113 C 192.050 236.363,192.929 235.777,194.035 233.783 C 194.471 232.998,195.153 231.998,195.551 231.562 C 195.950 231.126,196.656 230.156,197.120 229.406 C 197.585 228.656,198.181 227.960,198.445 227.858 C 198.930 227.673,201.548 224.084,203.013 221.597 C 203.450 220.857,204.342 219.629,204.997 218.869 C 206.758 216.827,206.816 216.343,206.825 203.648 C 206.835 190.008,206.807 190.153,209.806 188.438 C 213.034 186.591,217.115 186.499,220.864 188.189 M274.267 187.431 C 280.691 188.013,288.969 193.618,289.921 198.032 C 292.658 210.716,284.563 216.527,271.787 211.049 C 270.169 210.355,270.174 210.381,270.016 202.379 C 269.852 194.053,269.761 193.712,267.560 193.243 C 265.681 192.842,264.142 193.209,262.523 194.443 C 261.807 194.989,260.799 195.677,260.283 195.973 C 258.976 196.723,255.683 200.257,254.651 202.020 C 253.082 204.697,252.825 205.487,252.502 208.625 C 252.325 210.337,251.939 212.989,251.643 214.519 C 251.183 216.900,251.163 217.581,251.504 219.231 C 251.723 220.293,252.099 223.035,252.339 225.325 C 253.157 233.125,259.266 241.120,265.859 243.018 C 269.818 244.158,278.731 243.318,281.364 241.558 C 281.975 241.150,283.341 240.599,284.401 240.334 C 285.460 240.069,287.016 239.485,287.858 239.038 C 291.119 237.303,292.032 238.082,291.711 242.326 C 291.322 247.472,290.811 248.245,287.294 249.007 C 286.456 249.188,284.650 249.899,283.282 250.587 C 281.160 251.654,280.219 251.915,276.876 252.360 C 274.721 252.647,272.328 253.155,271.558 253.488 C 267.974 255.039,259.936 255.117,255.670 253.643 C 254.362 253.190,252.141 252.621,250.735 252.378 C 246.863 251.709,242.527 249.243,238.793 245.586 C 237.315 244.139,235.809 242.747,235.445 242.492 C 235.081 242.237,234.611 241.493,234.400 240.840 C 234.190 240.186,233.545 238.866,232.967 237.906 C 232.390 236.947,231.393 234.592,230.752 232.672 C 230.112 230.753,229.354 228.755,229.068 228.232 C 228.040 226.347,228.322 215.068,229.457 212.688 C 229.956 211.642,230.748 209.636,231.217 208.232 C 232.982 202.943,237.569 196.959,242.329 193.733 C 243.124 193.194,244.223 192.368,244.771 191.896 C 245.319 191.425,246.533 190.859,247.468 190.638 C 248.402 190.417,250.238 189.704,251.546 189.052 C 254.755 187.454,263.285 186.513,269.786 187.040 C 270.658 187.111,272.675 187.287,274.267 187.431 M62.756 188.422 C 63.710 189.293,63.781 189.487,63.601 190.722 C 63.430 191.892,63.521 192.208,64.295 193.125 L 65.186 194.180 67.407 193.799 C 69.833 193.383,70.461 193.131,71.759 192.051 C 72.233 191.657,73.375 191.086,74.296 190.783 C 75.218 190.480,77.171 189.603,78.638 188.833 L 81.304 187.433 87.202 187.532 L 93.101 187.630 96.455 189.318 C 100.118 191.161,104.971 195.403,106.227 197.861 C 106.560 198.514,107.314 199.762,107.901 200.634 C 108.594 201.665,109.172 203.109,109.549 204.758 C 109.869 206.154,110.578 208.580,111.125 210.151 C 112.650 214.531,112.612 221.715,111.041 226.170 C 110.456 227.827,109.790 230.155,109.561 231.343 C 109.139 233.532,106.700 237.992,104.670 240.285 C 104.207 240.809,103.510 241.701,103.122 242.267 C 102.734 242.834,101.819 243.709,101.089 244.211 C 100.359 244.713,98.977 245.908,98.017 246.866 C 96.702 248.180,95.961 248.664,95.004 248.833 C 94.306 248.957,92.419 249.699,90.811 250.484 L 87.888 251.910 82.088 252.380 C 78.326 252.684,74.617 252.782,71.531 252.658 C 63.759 252.345,63.811 252.269,63.712 264.116 C 63.631 273.669,63.653 273.783,65.893 275.634 C 67.263 276.765,68.403 277.127,71.531 277.426 C 75.042 277.762,76.297 279.711,74.413 281.901 L 73.648 282.791 56.262 282.879 C 35.253 282.984,33.941 282.810,33.941 279.922 C 33.941 278.575,34.799 278.072,38.299 277.365 C 41.248 276.770,42.904 275.776,43.769 274.080 C 44.607 272.437,44.796 203.095,43.966 201.490 C 42.986 199.595,42.487 199.404,38.132 199.259 C 33.394 199.102,32.671 198.806,32.675 197.029 C 32.679 194.804,33.556 194.040,36.611 193.599 C 38.417 193.339,39.915 192.891,41.170 192.238 C 42.937 191.318,46.471 190.356,48.216 190.320 C 48.652 190.310,50.508 189.674,52.339 188.905 C 56.830 187.019,61.008 186.825,62.756 188.422 M67.831 199.487 C 63.681 200.365,63.800 199.673,63.733 223.391 C 63.670 245.937,63.569 244.906,65.930 246.026 C 67.749 246.889,74.784 246.542,77.094 245.476 C 80.434 243.933,85.329 240.010,85.329 238.876 C 85.329 238.703,85.969 237.841,86.752 236.960 C 87.534 236.079,88.246 235.039,88.334 234.650 C 91.115 222.295,91.167 220.470,88.979 212.054 C 87.951 208.102,87.853 207.896,85.800 205.393 C 81.675 200.362,74.633 198.047,67.831 199.487 M76.900 202.291 C 77.427 202.563,78.727 203.087,79.790 203.455 C 82.508 204.396,86.158 208.451,86.601 211.022 C 87.895 218.537,87.990 220.855,87.268 227.416 C 86.639 233.140,86.602 233.295,85.501 234.893 C 84.883 235.791,84.377 236.658,84.376 236.819 C 84.376 236.981,83.374 238.158,82.150 239.435 L 79.924 241.757 76.072 243.013 C 70.507 244.828,67.178 244.829,66.780 243.018 C 66.630 242.333,66.455 207.591,66.585 204.379 C 66.689 201.827,73.382 200.471,76.900 202.291 " stroke="none" fill="#9f9d9d" fill-rule="evenodd"></path></g></svg>