<svg id="svg" version="1.1" xmlns="http://www.w3.org/2000/svg" xmlns:xlink="http://www.w3.org/1999/xlink" width="400" height="389.9497487437186" viewBox="0, 0, 400,389.9497487437186"><g id="svgg"><path id="path0" d="M154.082 124.407 C 150.133 124.581,150.451 122.515,150.355 148.589 C 150.294 165.182,150.148 171.548,149.820 171.944 C 149.149 172.751,128.888 172.743,127.782 171.934 C 127.049 171.398,127.021 170.632,126.918 148.333 C 126.815 126.039,126.787 125.273,126.060 124.884 C 125.562 124.617,117.502 124.516,102.178 124.582 L 79.047 124.683 78.554 125.659 C 77.867 127.015,77.813 267.154,78.499 268.658 C 78.792 269.301,79.370 269.723,80.157 269.868 C 82.919 270.375,125.516 269.873,126.175 269.326 C 126.747 268.850,126.822 266.510,126.918 245.974 L 127.024 223.150 127.946 222.404 C 129.099 221.470,148.370 221.240,149.570 222.146 C 150.156 222.589,150.226 224.763,150.327 245.547 C 150.432 266.936,150.485 268.507,151.136 269.157 C 151.789 269.810,153.278 269.854,174.877 269.854 L 197.922 269.854 198.669 268.932 C 199.785 267.554,199.847 126.652,198.732 125.320 C 198.079 124.541,165.946 123.884,154.082 124.407 M225.571 124.989 C 224.826 125.250,223.994 125.902,223.723 126.439 C 223.066 127.741,222.983 265.742,223.638 267.621 C 224.367 269.712,223.141 269.659,271.180 269.649 C 313.080 269.641,318.340 269.524,319.283 268.581 C 319.803 268.061,319.715 125.998,319.194 125.476 C 318.208 124.487,228.343 124.020,225.571 124.989 M125.737 125.580 C 126.137 125.980,126.285 130.954,126.439 149.124 C 126.627 171.358,126.661 172.180,127.392 172.715 C 128.505 173.528,148.959 173.528,150.072 172.715 C 150.803 172.180,150.836 171.356,151.024 148.942 C 151.132 136.172,151.366 125.577,151.545 125.398 C 152.197 124.747,197.837 125.001,198.252 125.659 C 198.979 126.808,198.742 267.934,198.012 268.664 C 197.323 269.353,152.231 269.435,151.545 268.748 C 151.366 268.570,151.132 258.083,151.024 245.445 C 150.843 224.061,150.781 222.418,150.133 221.770 C 149.067 220.704,128.400 220.704,127.332 221.770 C 126.682 222.418,126.621 224.046,126.439 245.491 C 126.270 265.389,126.164 268.567,125.659 268.887 C 124.959 269.328,80.423 269.401,79.732 268.962 C 78.501 268.179,78.463 266.055,78.445 197.121 C 78.427 125.105,78.407 125.965,80.092 125.276 C 81.568 124.672,125.119 124.962,125.737 125.580 " stroke="none" fill="#06e764" fill-rule="evenodd"></path><path id="path1" d="M80.092 125.276 C 78.407 125.965,78.427 125.105,78.445 197.121 C 78.463 266.055,78.501 268.179,79.732 268.962 C 80.423 269.401,124.959 269.328,125.659 268.887 C 126.164 268.567,126.270 265.389,126.439 245.491 C 126.621 224.046,126.682 222.418,127.332 221.770 C 128.400 220.704,149.067 220.704,150.133 221.770 C 150.781 222.418,150.843 224.061,151.024 245.445 C 151.132 258.083,151.366 268.570,151.545 268.748 C 152.231 269.435,197.323 269.353,198.012 268.664 C 198.742 267.934,198.979 126.808,198.252 125.659 C 197.837 125.001,152.197 124.747,151.545 125.398 C 151.366 125.577,151.132 136.172,151.024 148.942 C 150.836 171.356,150.803 172.180,150.072 172.715 C 148.959 173.528,128.505 173.528,127.392 172.715 C 126.661 172.180,126.627 171.358,126.439 149.124 C 126.285 130.954,126.137 125.980,125.737 125.580 C 125.119 124.962,81.568 124.672,80.092 125.276 " stroke="none" fill="#f8f8f9" fill-rule="evenodd"></path><path id="path2" d="M0.000 195.122 L 0.000 390.244 200.000 390.244 L 400.000 390.244 400.000 195.122 L 400.000 0.000 200.000 0.000 L 0.000 0.000 0.000 195.122 M198.732 125.320 C 199.847 126.652,199.785 267.554,198.669 268.932 L 197.922 269.854 174.877 269.854 C 153.278 269.854,151.789 269.810,151.136 269.157 C 150.485 268.507,150.432 266.936,150.327 245.547 C 150.226 224.763,150.156 222.589,149.570 222.146 C 148.370 221.240,129.099 221.470,127.946 222.404 L 127.024 223.150 126.918 245.974 C 126.822 266.510,126.747 268.850,126.175 269.326 C 125.516 269.873,82.919 270.375,80.157 269.868 C 79.370 269.723,78.792 269.301,78.499 268.658 C 77.813 267.154,77.867 127.015,78.554 125.659 L 79.047 124.683 102.178 124.582 C 117.502 124.516,125.562 124.617,126.060 124.884 C 126.787 125.273,126.815 126.039,126.918 148.333 C 127.021 170.632,127.049 171.398,127.782 171.934 C 128.888 172.743,149.149 172.751,149.820 171.944 C 150.148 171.548,150.294 165.182,150.355 148.589 C 150.451 122.515,150.133 124.581,154.082 124.407 C 165.946 123.884,198.079 124.541,198.732 125.320 M314.616 124.844 C 316.913 124.970,318.973 125.254,319.194 125.476 C 319.715 125.998,319.803 268.061,319.283 268.581 C 318.340 269.524,313.080 269.641,271.180 269.649 C 223.141 269.659,224.367 269.712,223.638 267.621 C 222.983 265.742,223.066 127.741,223.723 126.439 C 224.709 124.484,224.048 124.512,268.683 124.565 C 291.649 124.592,312.319 124.718,314.616 124.844 " stroke="none" fill="#0c131b" fill-rule="evenodd"></path></g></svg>